<svg xmlns="http://www.w3.org/2000/svg" xmlns:xlink="http://www.w3.org/1999/xlink" width="300" zoomAndPan="magnify" viewBox="0 0 224.87999 187.499995" height="250" preserveAspectRatio="xMidYMid meet" version="1.0"><defs><g/><clipPath id="5050200770"><path d="M 6.671875 55.878906 L 218.007812 55.878906 L 218.007812 91.800781 L 6.671875 91.800781 Z M 6.671875 55.878906 " clip-rule="nonzero"/></clipPath><clipPath id="c566835b51"><path d="M 0.238281 79 L 117 79 L 117 128 L 0.238281 128 Z M 0.238281 79 " clip-rule="nonzero"/></clipPath><clipPath id="db267d03a7"><path d="M 91 79 L 224.519531 79 L 224.519531 128 L 91 128 Z M 91 79 " clip-rule="nonzero"/></clipPath></defs><g clip-path="url(#5050200770)"><path fill="#5271ff" d="M 16.871094 75.628906 C 18.382812 74.578125 19.171875 73.589844 19.171875 72.539062 C 19.171875 71.289062 18.382812 70.234375 17.398438 69.445312 C 16.871094 68.917969 14.832031 68.195312 16.148438 66.15625 C 27.332031 68.984375 62.863281 55.957031 93.785156 55.957031 C 113.195312 55.957031 131.816406 59.246094 150.5 66.945312 C 162.277344 66.945312 207.742188 71.8125 218.203125 89.445312 C 217.679688 89.972656 216.953125 91.222656 216.691406 92.011719 L 214.125 92.011719 C 214.386719 91.222656 214.914062 90.238281 215.375 89.445312 C 208.730469 79.25 161.226562 71.023438 148.199219 71.023438 C 129.511719 62.601562 110.628906 60.035156 93.785156 60.035156 C 61.085938 60.035156 38.121094 70.761719 20.226562 69.511719 C 20.226562 70.761719 22.265625 72.078125 22.265625 74.117188 C 22.265625 75.894531 21.476562 77.667969 20.226562 79.25 C 16.148438 79.183594 9.960938 83.066406 9.960938 91.949219 L 6.671875 91.949219 C 6.671875 87.605469 6.671875 80.5 16.871094 75.628906 Z M 16.871094 75.628906 " fill-opacity="1" fill-rule="nonzero"/></g><g clip-path="url(#c566835b51)"><path stroke-linecap="butt" transform="matrix(0.443735, 0, 0, 0.443735, 8.454923, 86.058533)" fill="none" stroke-linejoin="miter" d="M 39.565918 64.077962 C 43.835426 64.077962 48.37783 62.801511 51.441311 60.803205 L 50.578607 53.258942 C 49.847949 53.584657 48.914819 53.927978 48.034508 53.927978 C 46.846089 53.927978 46.247477 52.994849 46.036203 51.727201 L 45.77211 48.989434 C 45.516819 46.383714 44.777358 44.719927 42.972721 43.989269 L 42.972721 43.918844 C 49.979995 41.119456 53.791741 35.49427 53.791741 28.69827 C 53.791741 19.824737 47.171804 14.947815 35.164364 14.947815 L 11.263926 14.947815 L 3.658041 63.003982 L 21.008967 63.003982 L 23.553065 46.982326 L 25.877085 46.982326 C 27.945816 46.982326 28.685277 48.646113 28.958173 50.582797 L 29.433541 54.984351 C 30.014546 60.600734 33.826292 64.077962 39.565918 64.077962 Z M 25.208049 36.312959 L 26.695774 26.955255 L 31.827986 26.955255 C 34.6978 26.955255 36.291162 28.354949 36.291162 30.837425 C 36.291162 34.367472 34.152007 36.312959 30.357867 36.312959 Z M 80.80848 64.597345 C 98.229831 64.597345 111.02955 51.38388 111.02955 34.244228 C 111.02955 21.4181 101.962348 13.354453 86.882624 13.354453 C 69.399652 13.354453 56.582326 26.48869 56.582326 43.707569 C 56.582326 56.533698 65.719952 64.597345 80.80848 64.597345 Z M 82.613117 49.913761 C 77.146387 49.913761 74.126921 46.718232 74.126921 41.445171 C 74.126921 34.499518 78.070713 28.029234 84.94594 28.029234 C 90.483095 28.029234 93.484955 31.224762 93.484955 36.506627 C 93.484955 43.381854 89.558769 49.913761 82.613117 49.913761 Z M 108.371011 63.003982 L 125.396222 63.003982 L 128.714994 55.521341 L 141.998884 55.521341 L 142.597495 63.003982 L 160.555836 63.003982 L 152.747479 14.947815 L 131.391139 14.947815 Z M 132.790833 44.314984 L 139.930153 27.817959 L 140.071003 27.817959 L 141.4795 44.314984 Z M 163.619317 63.003982 L 185.169326 63.003982 C 204.677013 63.003982 215.478427 52.721952 215.478427 34.631565 C 215.478427 21.823043 206.939412 14.947815 191.52517 14.947815 L 171.225203 14.947815 Z M 182.369937 49.658471 L 185.77674 28.293327 L 190.583237 28.293327 C 195.328113 28.293327 197.933833 31.092716 197.933833 36.77072 C 197.933833 44.851974 194.122087 49.658471 187.176434 49.658471 Z M 182.369937 49.658471 " stroke="#000000" stroke-width="5.006063" stroke-opacity="1" stroke-miterlimit="4"/></g><g clip-path="url(#db267d03a7)"><path stroke-linecap="butt" transform="matrix(0.443735, 0, 0, 0.443735, 8.454923, 86.058533)" fill="none" stroke-linejoin="miter" d="M 251.984916 64.077962 C 256.254423 64.077962 260.80563 62.801511 263.869112 60.803205 L 263.006407 53.258942 C 262.266946 53.584657 261.34262 53.927978 260.462309 53.927978 C 259.27389 53.927978 258.666475 52.994849 258.4552 51.727201 L 258.19991 48.989434 C 257.935817 46.383714 257.205159 44.719927 255.391719 43.989269 L 255.391719 43.918844 C 262.398993 41.119456 266.210739 35.49427 266.210739 28.69827 C 266.210739 19.824737 259.599605 14.947815 247.592165 14.947815 L 223.682924 14.947815 L 216.077038 63.003982 L 233.427964 63.003982 L 235.972062 46.982326 L 238.304886 46.982326 C 240.373617 46.982326 241.104274 48.646113 241.377171 50.582797 L 241.852539 54.984351 C 242.442347 60.600734 246.254093 64.077962 251.984916 64.077962 Z M 237.63585 36.312959 L 239.114772 26.955255 L 244.246984 26.955255 C 247.116797 26.955255 248.71016 28.354949 248.71016 30.837425 C 248.71016 34.367472 246.579808 36.312959 242.785668 36.312959 Z M 293.227477 64.597345 C 310.648828 64.597345 323.45735 51.38388 323.45735 34.244228 C 323.45735 21.4181 314.381346 13.354453 299.310425 13.354453 C 281.827452 13.354453 269.001324 26.48869 269.001324 43.707569 C 269.001324 56.533698 278.13895 64.597345 293.227477 64.597345 Z M 295.040918 49.913761 C 289.565384 49.913761 286.545918 46.718232 286.545918 41.445171 C 286.545918 34.499518 290.489711 28.029234 297.364938 28.029234 C 302.910896 28.029234 305.903953 31.224762 305.903953 36.506627 C 305.903953 43.381854 301.977767 49.913761 295.040918 49.913761 Z M 336.547572 63.003982 L 357.094026 63.003982 L 380.519097 14.947815 L 362.56956 14.947815 L 349.153623 48.514067 L 349.021576 48.514067 L 346.292613 14.947815 L 328.395894 14.947815 Z M 375.96789 63.003982 L 410.282405 63.003982 L 412.359939 49.658471 L 394.727313 49.658471 L 395.607624 44.314984 L 409.877462 44.314984 L 411.690903 32.967778 L 397.394655 32.967778 L 398.134116 28.293327 L 415.088902 28.293327 L 417.228058 14.947815 L 383.582579 14.947815 Z M 450.521412 64.077962 C 454.79092 64.077962 459.333324 62.801511 462.396805 60.803205 L 461.534101 53.258942 C 460.803443 53.584657 459.879116 53.927978 458.998805 53.927978 C 457.801583 53.927978 457.202971 52.994849 456.991697 51.727201 L 456.727604 48.989434 C 456.472313 46.383714 455.732852 44.719927 453.928215 43.989269 L 453.928215 43.918844 C 460.935489 41.119456 464.747235 35.49427 464.747235 28.69827 C 464.747235 19.824737 458.127298 14.947815 446.119858 14.947815 L 422.21942 14.947815 L 414.613535 63.003982 L 431.964461 63.003982 L 434.508559 46.982326 L 436.832579 46.982326 C 438.90131 46.982326 439.640771 48.646113 439.913667 50.582797 L 440.389035 54.984351 C 440.97004 60.600734 444.790589 64.077962 450.521412 64.077962 Z M 436.163543 36.312959 L 437.651268 26.955255 L 442.78348 26.955255 C 445.653294 26.955255 447.246656 28.354949 447.246656 30.837425 C 447.246656 34.367472 445.116304 36.312959 441.313361 36.312959 Z M 436.163543 36.312959 " stroke="#000000" stroke-width="5.006063" stroke-opacity="1" stroke-miterlimit="4"/></g><g fill="#5271ff" fill-opacity="1"><g transform="translate(9.93173, 114.013858)"><g><path d="M 16.082031 0.472656 C 17.976562 0.472656 19.988281 -0.0898438 21.351562 -0.976562 L 20.96875 -4.324219 C 20.640625 -4.175781 20.226562 -4.027344 19.84375 -4.027344 C 19.308594 -4.027344 19.042969 -4.441406 18.953125 -5.003906 L 18.835938 -6.21875 C 18.714844 -7.375 18.390625 -8.113281 17.589844 -8.441406 L 17.589844 -8.46875 C 20.699219 -9.714844 22.390625 -12.203125 22.390625 -15.222656 C 22.390625 -19.160156 19.457031 -21.324219 14.125 -21.324219 L 3.523438 -21.324219 L 0.148438 0 L 7.847656 0 L 8.972656 -7.109375 L 10.011719 -7.109375 C 10.929688 -7.109375 11.253906 -6.367188 11.371094 -5.507812 L 11.578125 -3.554688 C 11.847656 -1.066406 13.535156 0.472656 16.082031 0.472656 Z M 9.714844 -11.847656 L 10.363281 -15.992188 L 12.644531 -15.992188 C 13.917969 -15.992188 14.628906 -15.371094 14.628906 -14.273438 C 14.628906 -12.703125 13.683594 -11.847656 11.992188 -11.847656 Z M 9.714844 -11.847656 "/></g></g></g><g fill="#5271ff" fill-opacity="1"><g transform="translate(32.585198, 114.013858)"><g><path d="M 11.726562 0.710938 C 19.457031 0.710938 25.144531 -5.152344 25.144531 -12.765625 C 25.144531 -18.449219 21.117188 -22.035156 14.421875 -22.035156 C 6.664062 -22.035156 0.976562 -16.199219 0.976562 -8.558594 C 0.976562 -2.871094 5.035156 0.710938 11.726562 0.710938 Z M 12.527344 -5.804688 C 10.097656 -5.804688 8.765625 -7.226562 8.765625 -9.566406 C 8.765625 -12.644531 10.511719 -15.519531 13.5625 -15.519531 C 16.023438 -15.519531 17.355469 -14.097656 17.355469 -11.757812 C 17.355469 -8.707031 15.605469 -5.804688 12.527344 -5.804688 Z M 12.527344 -5.804688 "/></g></g></g><g fill="#5271ff" fill-opacity="1"><g transform="translate(57.755715, 114.013858)"><g><path d="M -1.214844 0 L 6.335938 0 L 7.816406 -3.316406 L 13.710938 -3.316406 L 13.976562 0 L 21.945312 0 L 18.480469 -21.324219 L 9.003906 -21.324219 Z M 9.625 -8.292969 L 12.792969 -15.605469 L 12.851562 -15.605469 L 13.476562 -8.292969 Z M 9.625 -8.292969 "/></g></g></g><g fill="#5271ff" fill-opacity="1"><g transform="translate(80.91259, 114.013858)"><g><path d="M 0.148438 0 L 9.714844 0 C 18.359375 0 23.160156 -4.5625 23.160156 -12.585938 C 23.160156 -18.273438 19.367188 -21.324219 12.527344 -21.324219 L 3.523438 -21.324219 Z M 8.46875 -5.921875 L 9.980469 -15.398438 L 12.113281 -15.398438 C 14.214844 -15.398438 15.371094 -14.15625 15.371094 -11.636719 C 15.371094 -8.054688 13.683594 -5.921875 10.601562 -5.921875 Z M 8.46875 -5.921875 "/></g></g></g><g fill="#f8f7f2" fill-opacity="1"><g transform="translate(104.190819, 114.013858)"><g><path d="M 16.082031 0.472656 C 17.976562 0.472656 19.988281 -0.0898438 21.351562 -0.976562 L 20.96875 -4.324219 C 20.640625 -4.175781 20.226562 -4.027344 19.84375 -4.027344 C 19.308594 -4.027344 19.042969 -4.441406 18.953125 -5.003906 L 18.835938 -6.21875 C 18.714844 -7.375 18.390625 -8.113281 17.589844 -8.441406 L 17.589844 -8.46875 C 20.699219 -9.714844 22.390625 -12.203125 22.390625 -15.222656 C 22.390625 -19.160156 19.457031 -21.324219 14.125 -21.324219 L 3.523438 -21.324219 L 0.148438 0 L 7.847656 0 L 8.972656 -7.109375 L 10.011719 -7.109375 C 10.929688 -7.109375 11.253906 -6.367188 11.371094 -5.507812 L 11.578125 -3.554688 C 11.847656 -1.066406 13.535156 0.472656 16.082031 0.472656 Z M 9.714844 -11.847656 L 10.363281 -15.992188 L 12.644531 -15.992188 C 13.917969 -15.992188 14.628906 -15.371094 14.628906 -14.273438 C 14.628906 -12.703125 13.683594 -11.847656 11.992188 -11.847656 Z M 9.714844 -11.847656 "/></g></g></g><g fill="#f8f7f2" fill-opacity="1"><g transform="translate(126.844287, 114.013858)"><g><path d="M 11.726562 0.710938 C 19.457031 0.710938 25.144531 -5.152344 25.144531 -12.765625 C 25.144531 -18.449219 21.117188 -22.035156 14.421875 -22.035156 C 6.664062 -22.035156 0.976562 -16.199219 0.976562 -8.558594 C 0.976562 -2.871094 5.035156 0.710938 11.726562 0.710938 Z M 12.527344 -5.804688 C 10.097656 -5.804688 8.765625 -7.226562 8.765625 -9.566406 C 8.765625 -12.644531 10.511719 -15.519531 13.5625 -15.519531 C 16.023438 -15.519531 17.355469 -14.097656 17.355469 -11.757812 C 17.355469 -8.707031 15.605469 -5.804688 12.527344 -5.804688 Z M 12.527344 -5.804688 "/></g></g></g><g fill="#f8f7f2" fill-opacity="1"><g transform="translate(152.014804, 114.013858)"><g><path d="M 5.773438 0 L 14.894531 0 L 25.292969 -21.324219 L 17.324219 -21.324219 L 11.371094 -6.425781 L 11.3125 -6.425781 L 10.097656 -21.324219 L 2.160156 -21.324219 Z M 5.773438 0 "/></g></g></g><g fill="#f8f7f2" fill-opacity="1"><g transform="translate(175.14207, 114.013858)"><g><path d="M 0.148438 0 L 15.371094 0 L 16.289062 -5.921875 L 8.46875 -5.921875 L 8.855469 -8.292969 L 15.191406 -8.292969 L 15.992188 -13.328125 L 9.65625 -13.328125 L 9.980469 -15.398438 L 17.503906 -15.398438 L 18.449219 -21.324219 L 3.523438 -21.324219 Z M 0.148438 0 "/></g></g></g><g fill="#f8f7f2" fill-opacity="1"><g transform="translate(192.287637, 114.013858)"><g><path d="M 16.082031 0.472656 C 17.976562 0.472656 19.988281 -0.0898438 21.351562 -0.976562 L 20.96875 -4.324219 C 20.640625 -4.175781 20.226562 -4.027344 19.84375 -4.027344 C 19.308594 -4.027344 19.042969 -4.441406 18.953125 -5.003906 L 18.835938 -6.21875 C 18.714844 -7.375 18.390625 -8.113281 17.589844 -8.441406 L 17.589844 -8.46875 C 20.699219 -9.714844 22.390625 -12.203125 22.390625 -15.222656 C 22.390625 -19.160156 19.457031 -21.324219 14.125 -21.324219 L 3.523438 -21.324219 L 0.148438 0 L 7.847656 0 L 8.972656 -7.109375 L 10.011719 -7.109375 C 10.929688 -7.109375 11.253906 -6.367188 11.371094 -5.507812 L 11.578125 -3.554688 C 11.847656 -1.066406 13.535156 0.472656 16.082031 0.472656 Z M 9.714844 -11.847656 L 10.363281 -15.992188 L 12.644531 -15.992188 C 13.917969 -15.992188 14.628906 -15.371094 14.628906 -14.273438 C 14.628906 -12.703125 13.683594 -11.847656 11.992188 -11.847656 Z M 9.714844 -11.847656 "/></g></g></g><g fill="#545454" fill-opacity="1"><g transform="translate(78.571736, 128.043608)"><g><path d="M 0.25 0 L 1.484375 -7.046875 L 4.03125 -7.046875 C 4.53125 -7.046875 4.941406 -6.957031 5.265625 -6.78125 C 5.585938 -6.613281 5.828125 -6.390625 5.984375 -6.109375 C 6.140625 -5.828125 6.21875 -5.519531 6.21875 -5.1875 C 6.21875 -4.625 6.054688 -4.148438 5.734375 -3.765625 C 5.421875 -3.378906 4.992188 -3.101562 4.453125 -2.9375 L 5.390625 0 L 3.984375 0 L 3.171875 -2.78125 L 2.03125 -2.78125 L 1.546875 0 Z M 2.1875 -3.71875 L 3.40625 -3.71875 C 3.851562 -3.71875 4.210938 -3.832031 4.484375 -4.0625 C 4.753906 -4.300781 4.890625 -4.628906 4.890625 -5.046875 C 4.890625 -5.316406 4.800781 -5.535156 4.625 -5.703125 C 4.457031 -5.878906 4.179688 -5.96875 3.796875 -5.96875 L 2.59375 -5.96875 Z M 2.1875 -3.71875 "/></g></g></g><g fill="#545454" fill-opacity="1"><g transform="translate(88.838044, 128.043608)"><g><path d="M 0.234375 0 L 1.484375 -7.046875 L 5.84375 -7.046875 L 5.65625 -6.03125 L 2.59375 -6.03125 L 2.25 -4.0625 L 5.015625 -4.0625 L 4.84375 -3.078125 L 2.078125 -3.078125 L 1.703125 -1.015625 L 4.78125 -1.015625 L 4.59375 0 Z M 0.234375 0 "/></g></g></g><g fill="#545454" fill-opacity="1"><g transform="translate(98.460937, 128.043608)"><g><path d="M 0.234375 0 L 1.484375 -7.046875 L 2.78125 -7.046875 L 5.203125 -2.015625 L 6.09375 -7.046875 L 7.375 -7.046875 L 6.125 0 L 4.84375 0 L 2.421875 -5.015625 L 1.53125 0 Z M 0.234375 0 "/></g></g></g><g fill="#545454" fill-opacity="1"><g transform="translate(109.702424, 128.043608)"><g><path d="M 1.890625 0 L 2.953125 -6.03125 L 0.890625 -6.03125 L 1.078125 -7.046875 L 6.484375 -7.046875 L 6.3125 -6.03125 L 4.234375 -6.03125 L 3.1875 0 Z M 1.890625 0 "/></g></g></g><g fill="#545454" fill-opacity="1"><g transform="translate(119.636974, 128.043608)"><g><path d="M -0.21875 0 L 3.609375 -7.046875 L 5.0625 -7.046875 L 6.390625 0 L 5.03125 0 L 4.75 -1.625 L 2 -1.625 L 1.140625 0 Z M 2.515625 -2.609375 L 4.59375 -2.609375 L 4.078125 -5.59375 Z M 2.515625 -2.609375 "/></g></g></g><g fill="#545454" fill-opacity="1"><g transform="translate(130.677395, 128.043608)"><g><path d="M 0.25 0 L 1.484375 -7.046875 L 2.78125 -7.046875 L 1.703125 -1 L 4.828125 -1 L 4.65625 0 Z M 0.25 0 "/></g></g></g><g fill="#545454" fill-opacity="1"><g transform="translate(140.219861, 128.043608)"><g><path d="M 2.71875 0.125 C 2.25 0.125 1.835938 0.0507812 1.484375 -0.09375 C 1.128906 -0.238281 0.851562 -0.445312 0.65625 -0.71875 C 0.457031 -1 0.359375 -1.335938 0.359375 -1.734375 C 0.359375 -1.796875 0.359375 -1.859375 0.359375 -1.921875 C 0.367188 -1.984375 0.375 -2.050781 0.375 -2.125 L 1.75 -2.125 C 1.738281 -2.050781 1.734375 -1.984375 1.734375 -1.921875 C 1.734375 -1.628906 1.835938 -1.394531 2.046875 -1.21875 C 2.253906 -1.039062 2.53125 -0.953125 2.875 -0.953125 C 3.269531 -0.953125 3.578125 -1.050781 3.796875 -1.25 C 4.015625 -1.445312 4.125 -1.707031 4.125 -2.03125 C 4.125 -2.269531 4.039062 -2.457031 3.875 -2.59375 C 3.707031 -2.738281 3.492188 -2.859375 3.234375 -2.953125 C 2.972656 -3.046875 2.703125 -3.144531 2.421875 -3.25 C 1.984375 -3.40625 1.644531 -3.625 1.40625 -3.90625 C 1.175781 -4.195312 1.0625 -4.53125 1.0625 -4.90625 C 1.0625 -5.351562 1.175781 -5.742188 1.40625 -6.078125 C 1.632812 -6.421875 1.953125 -6.6875 2.359375 -6.875 C 2.765625 -7.070312 3.234375 -7.171875 3.765625 -7.171875 C 4.398438 -7.171875 4.910156 -7.015625 5.296875 -6.703125 C 5.691406 -6.390625 5.890625 -5.96875 5.890625 -5.4375 C 5.890625 -5.394531 5.882812 -5.347656 5.875 -5.296875 C 5.875 -5.242188 5.867188 -5.1875 5.859375 -5.125 L 4.484375 -5.125 C 4.492188 -5.1875 4.5 -5.242188 4.5 -5.296875 C 4.5 -5.503906 4.414062 -5.6875 4.25 -5.84375 C 4.09375 -6 3.859375 -6.078125 3.546875 -6.078125 C 3.203125 -6.078125 2.929688 -5.988281 2.734375 -5.8125 C 2.535156 -5.632812 2.4375 -5.410156 2.4375 -5.140625 C 2.4375 -4.929688 2.503906 -4.765625 2.640625 -4.640625 C 2.773438 -4.515625 2.957031 -4.40625 3.1875 -4.3125 C 3.414062 -4.226562 3.664062 -4.132812 3.9375 -4.03125 C 4.226562 -3.9375 4.492188 -3.804688 4.734375 -3.640625 C 4.972656 -3.472656 5.164062 -3.269531 5.3125 -3.03125 C 5.457031 -2.800781 5.53125 -2.523438 5.53125 -2.203125 C 5.53125 -1.734375 5.40625 -1.320312 5.15625 -0.96875 C 4.914062 -0.625 4.582031 -0.351562 4.15625 -0.15625 C 3.738281 0.03125 3.257812 0.125 2.71875 0.125 Z M 2.71875 0.125 "/></g></g></g></svg>