<svg xmlns="http://www.w3.org/2000/svg" xmlns:xlink="http://www.w3.org/1999/xlink" width="300" zoomAndPan="magnify" viewBox="0 0 224.87999 187.499995" height="250" preserveAspectRatio="xMidYMid meet" version="1.0"><defs><g/><clipPath id="8c9e750989"><path d="M 0.238281 0 L 136 0 L 136 147 L 0.238281 147 Z M 0.238281 0 " clip-rule="nonzero"/></clipPath><clipPath id="18f8caadf3"><path d="M 89 0 L 224.519531 0 L 224.519531 147 L 89 147 Z M 89 0 " clip-rule="nonzero"/></clipPath></defs><g clip-path="url(#8c9e750989)"><path stroke-linecap="butt" transform="matrix(0.748005, 0, 0, 0.748005, 14.30082, 4.213735)" fill="none" stroke-linejoin="miter" d="M 85.644399 146.469159 C 95.451733 146.469159 105.896178 143.549937 112.935734 138.943936 L 110.951289 121.616602 C 109.264512 122.36338 107.128622 123.146713 105.107622 123.146713 C 102.3764 123.146713 100.992511 121.016046 100.506844 118.096824 L 99.906289 111.809268 C 99.305733 105.819378 97.624177 101.996712 93.467288 100.315156 L 93.467288 100.163711 C 109.562178 93.724711 118.325068 80.810154 118.325068 65.200931 C 118.325068 44.797708 103.123178 33.606485 75.539398 33.606485 L 20.622505 33.606485 L 3.138504 143.999048 L 43.004951 143.999048 L 48.848618 107.203267 L 54.201397 107.203267 C 58.953619 107.203267 60.640397 111.020712 61.272286 115.475268 L 62.358508 125.580269 C 63.705842 138.494825 72.468731 146.469159 85.644399 146.469159 Z M 52.666063 82.684932 L 56.070952 61.195486 L 67.862731 61.195486 C 74.453176 61.195486 78.119176 64.417598 78.119176 70.104598 C 78.119176 78.230377 73.215509 82.684932 64.494397 82.684932 Z M 52.666063 82.684932 " stroke="#000000" stroke-width="7.6667" stroke-opacity="1" stroke-miterlimit="4"/></g><g clip-path="url(#18f8caadf3)"><path stroke-linecap="butt" transform="matrix(0.748005, 0, 0, 0.748005, 14.30082, 4.213735)" fill="none" stroke-linejoin="miter" d="M 225.939409 146.469159 C 235.746743 146.469159 246.191188 143.549937 253.230744 138.943936 L 251.246299 121.616602 C 249.559521 122.36338 247.428855 123.146713 245.407854 123.146713 C 242.67141 123.146713 241.287521 121.016046 240.801854 118.096824 L 240.201298 111.809268 C 239.605965 105.819378 237.919187 101.996712 233.762298 100.315156 L 233.762298 100.163711 C 249.86241 93.724711 258.620078 80.810154 258.620078 65.200931 C 258.620078 44.797708 243.42341 33.606485 215.834408 33.606485 L 160.917515 33.606485 L 143.438736 143.999048 L 183.305183 143.999048 L 189.143628 107.203267 L 194.496406 107.203267 C 199.248629 107.203267 200.935407 111.020712 201.572518 115.475268 L 202.65874 125.580269 C 204.006074 138.494825 212.763741 146.469159 225.939409 146.469159 Z M 192.961073 82.684932 L 196.365962 61.195486 L 208.157741 61.195486 C 214.748186 61.195486 218.414186 64.417598 218.414186 70.104598 C 218.414186 78.230377 213.510519 82.684932 204.789407 82.684932 Z M 192.961073 82.684932 " stroke="#000000" stroke-width="7.6667" stroke-opacity="1" stroke-miterlimit="4"/></g><g fill="#5271ff" fill-opacity="1"><g transform="translate(16.08902, 111.926494)"><g><path d="M 62.277344 1.835938 C 69.617188 1.835938 77.417969 -0.34375 82.691406 -3.785156 L 81.203125 -16.746094 C 79.941406 -16.171875 78.335938 -15.597656 76.84375 -15.597656 C 74.777344 -15.597656 73.746094 -17.203125 73.402344 -19.382812 L 72.945312 -24.085938 C 72.484375 -28.558594 71.222656 -31.425781 68.125 -32.6875 L 68.125 -32.800781 C 80.167969 -37.617188 86.707031 -47.253906 86.707031 -58.953125 C 86.707031 -74.207031 75.351562 -82.578125 54.707031 -82.578125 L 13.648438 -82.578125 L 0.574219 0 L 30.394531 0 L 34.75 -27.527344 L 38.765625 -27.527344 C 42.320312 -27.527344 43.582031 -24.660156 44.042969 -21.332031 L 44.84375 -13.761719 C 45.875 -4.128906 52.414062 1.835938 62.277344 1.835938 Z M 37.617188 -45.875 L 40.140625 -61.933594 L 48.972656 -61.933594 C 53.90625 -61.933594 56.65625 -59.523438 56.65625 -55.28125 C 56.65625 -49.203125 52.988281 -45.875 46.449219 -45.875 Z M 37.617188 -45.875 "/></g></g></g><g fill="#f8f7f2" fill-opacity="1"><g transform="translate(121.031821, 111.926494)"><g><path d="M 62.277344 1.835938 C 69.617188 1.835938 77.417969 -0.34375 82.691406 -3.785156 L 81.203125 -16.746094 C 79.941406 -16.171875 78.335938 -15.597656 76.84375 -15.597656 C 74.777344 -15.597656 73.746094 -17.203125 73.402344 -19.382812 L 72.945312 -24.085938 C 72.484375 -28.558594 71.222656 -31.425781 68.125 -32.6875 L 68.125 -32.800781 C 80.167969 -37.617188 86.707031 -47.253906 86.707031 -58.953125 C 86.707031 -74.207031 75.351562 -82.578125 54.707031 -82.578125 L 13.648438 -82.578125 L 0.574219 0 L 30.394531 0 L 34.75 -27.527344 L 38.765625 -27.527344 C 42.320312 -27.527344 43.582031 -24.660156 44.042969 -21.332031 L 44.84375 -13.761719 C 45.875 -4.128906 52.414062 1.835938 62.277344 1.835938 Z M 37.617188 -45.875 L 40.140625 -61.933594 L 48.972656 -61.933594 C 53.90625 -61.933594 56.65625 -59.523438 56.65625 -55.28125 C 56.65625 -49.203125 52.988281 -45.875 46.449219 -45.875 Z M 37.617188 -45.875 "/></g></g></g><g fill="#f8f7f2" fill-opacity="1"><g transform="translate(19.622528, 160.995634)"><g><path d="M 1 0 L 5.90625 -27.921875 L 16 -27.921875 C 17.96875 -27.921875 19.585938 -27.582031 20.859375 -26.90625 C 22.140625 -26.226562 23.09375 -25.328125 23.71875 -24.203125 C 24.34375 -23.085938 24.65625 -21.878906 24.65625 -20.578125 C 24.65625 -18.347656 24.019531 -16.460938 22.75 -14.921875 C 21.488281 -13.378906 19.796875 -12.285156 17.671875 -11.640625 L 21.375 0 L 15.796875 0 L 12.5625 -11.015625 L 8.0625 -11.015625 L 6.109375 0 Z M 8.703125 -14.765625 L 13.515625 -14.765625 C 15.304688 -14.765625 16.734375 -15.226562 17.796875 -16.15625 C 18.859375 -17.082031 19.390625 -18.375 19.390625 -20.03125 C 19.390625 -21.09375 19.050781 -21.960938 18.375 -22.640625 C 17.695312 -23.316406 16.597656 -23.65625 15.078125 -23.65625 L 10.25 -23.65625 Z M 8.703125 -14.765625 "/></g></g></g><g fill="#f8f7f2" fill-opacity="1"><g transform="translate(46.508356, 160.995634)"><g><path d="M 0.953125 0 L 5.90625 -27.921875 L 23.171875 -27.921875 L 22.421875 -23.890625 L 10.296875 -23.890625 L 8.9375 -16.109375 L 19.859375 -16.109375 L 19.1875 -12.203125 L 8.25 -12.203125 L 6.78125 -4.03125 L 18.953125 -4.03125 L 18.234375 0 Z M 0.953125 0 "/></g></g></g><g fill="#f8f7f2" fill-opacity="1"><g transform="translate(70.841246, 160.995634)"><g><path d="M 0.953125 0 L 5.90625 -27.921875 L 11.046875 -27.921875 L 20.625 -8.015625 L 24.140625 -27.921875 L 29.234375 -27.921875 L 24.296875 0 L 19.1875 0 L 9.609375 -19.90625 L 6.0625 0 Z M 0.953125 0 "/></g></g></g><g fill="#f8f7f2" fill-opacity="1"><g transform="translate(101.59636, 160.995634)"><g><path d="M 7.5 0 L 11.6875 -23.890625 L 3.546875 -23.890625 L 4.265625 -27.921875 L 25.6875 -27.921875 L 25.015625 -23.890625 L 16.796875 -23.890625 L 12.609375 0 Z M 7.5 0 "/></g></g></g><g fill="#f8f7f2" fill-opacity="1"><g transform="translate(127.165828, 160.995634)"><g><path d="M -0.84375 0 L 14.28125 -27.921875 L 20.0625 -27.921875 L 25.328125 0 L 19.9375 0 L 18.828125 -6.46875 L 7.9375 -6.46875 L 4.546875 0 Z M 9.96875 -10.375 L 18.1875 -10.375 L 16.15625 -22.171875 Z M 9.96875 -10.375 "/></g></g></g><g fill="#f8f7f2" fill-opacity="1"><g transform="translate(157.123145, 160.995634)"><g><path d="M 1 0 L 5.90625 -27.921875 L 11.015625 -27.921875 L 6.78125 -3.984375 L 19.140625 -3.984375 L 18.46875 0 Z M 1 0 "/></g></g></g><g fill="#f8f7f2" fill-opacity="1"><g transform="translate(181.136903, 160.995634)"><g><path d="M 10.765625 0.484375 C 8.929688 0.484375 7.3125 0.195312 5.90625 -0.375 C 4.5 -0.945312 3.394531 -1.785156 2.59375 -2.890625 C 1.789062 -3.992188 1.390625 -5.316406 1.390625 -6.859375 C 1.390625 -7.128906 1.398438 -7.390625 1.421875 -7.640625 C 1.453125 -7.890625 1.484375 -8.148438 1.515625 -8.421875 L 6.9375 -8.421875 C 6.914062 -8.128906 6.90625 -7.863281 6.90625 -7.625 C 6.90625 -6.476562 7.304688 -5.550781 8.109375 -4.84375 C 8.921875 -4.144531 10.019531 -3.796875 11.40625 -3.796875 C 12.945312 -3.796875 14.15625 -4.1875 15.03125 -4.96875 C 15.914062 -5.75 16.359375 -6.78125 16.359375 -8.0625 C 16.359375 -9.019531 16.023438 -9.773438 15.359375 -10.328125 C 14.691406 -10.890625 13.84375 -11.351562 12.8125 -11.71875 C 11.789062 -12.09375 10.722656 -12.484375 9.609375 -12.890625 C 7.859375 -13.523438 6.515625 -14.398438 5.578125 -15.515625 C 4.648438 -16.628906 4.1875 -17.945312 4.1875 -19.46875 C 4.1875 -21.25 4.644531 -22.8125 5.5625 -24.15625 C 6.476562 -25.5 7.738281 -26.539062 9.34375 -27.28125 C 10.957031 -28.03125 12.816406 -28.40625 14.921875 -28.40625 C 17.441406 -28.40625 19.472656 -27.789062 21.015625 -26.5625 C 22.566406 -25.34375 23.34375 -23.679688 23.34375 -21.578125 C 23.34375 -21.390625 23.332031 -21.1875 23.3125 -20.96875 C 23.300781 -20.757812 23.28125 -20.550781 23.25 -20.34375 L 17.796875 -20.34375 C 17.816406 -20.582031 17.828125 -20.804688 17.828125 -21.015625 C 17.828125 -21.847656 17.507812 -22.566406 16.875 -23.171875 C 16.238281 -23.785156 15.304688 -24.09375 14.078125 -24.09375 C 12.722656 -24.09375 11.648438 -23.738281 10.859375 -23.03125 C 10.078125 -22.332031 9.6875 -21.453125 9.6875 -20.390625 C 9.6875 -19.554688 9.953125 -18.894531 10.484375 -18.40625 C 11.015625 -17.914062 11.734375 -17.488281 12.640625 -17.125 C 13.546875 -16.769531 14.546875 -16.394531 15.640625 -16 C 16.785156 -15.59375 17.828125 -15.0625 18.765625 -14.40625 C 19.710938 -13.757812 20.472656 -12.972656 21.046875 -12.046875 C 21.617188 -11.117188 21.90625 -10.015625 21.90625 -8.734375 C 21.90625 -6.867188 21.425781 -5.242188 20.46875 -3.859375 C 19.507812 -2.484375 18.191406 -1.414062 16.515625 -0.65625 C 14.835938 0.101562 12.921875 0.484375 10.765625 0.484375 Z M 10.765625 0.484375 "/></g></g></g></svg>